<?xml version="1.0" standalone="no"?>
<!DOCTYPE svg PUBLIC "-//W3C//DTD SVG 20010904//EN"
 "http://www.w3.org/TR/2001/REC-SVG-20010904/DTD/svg10.dtd">
<svg version="1.0" xmlns="http://www.w3.org/2000/svg"
 width="1024.000000pt" height="1024.000000pt" viewBox="0 0 1024.000000 1024.000000"
 preserveAspectRatio="xMidYMid meet">
<metadata>
Created by potrace 1.11, written by Peter Selinger 2001-2013
</metadata>
<g transform="translate(0.000000,1024.000000) scale(0.100000,-0.100000)"
fill="#000000" stroke="none">
<path d="M925 10220 c-49 -10 -117 -28 -150 -40 -33 -11 -64 -22 -70 -24 -5
-1 -46 -21 -91 -44 -203 -103 -387 -287 -487 -487 -34 -68 -73 -164 -82 -202
-10 -43 -24 -100 -32 -128 -11 -41 -14 -8247 -3 -8310 5 -27 11 -66 15 -85 10
-60 56 -192 92 -265 104 -210 262 -376 469 -492 57 -33 149 -74 174 -79 3 0
12 -3 20 -7 39 -15 93 -29 166 -42 67 -12 675 -14 4174 -14 2625 0 4113 3
4145 10 28 5 59 11 70 13 138 27 304 98 422 183 74 53 203 175 250 238 110
147 198 351 220 513 4 31 8 1913 8 4182 0 3405 -2 4135 -13 4180 -42 170 -95
297 -177 419 -177 264 -451 437 -780 490 -38 6 -1535 10 -4155 10 -3937 -1
-4098 -1 -4185 -19z m5005 -919 c69 -6 186 -18 260 -27 1019 -120 1769 -525
2204 -1191 259 -396 396 -917 396 -1502 0 -779 -225 -1398 -674 -1860 -469
-481 -1126 -760 -2001 -850 -239 -25 -479 -31 -1252 -31 l-823 0 0 -1460 0
-1460 -1075 0 -1075 0 0 4201 0 4200 1958 -4 c1320 -3 1998 -8 2082 -16z"/>
<path d="M4040 6574 l0 -1175 728 4 c687 4 733 5 837 25 291 55 506 161 666
330 131 136 218 303 260 495 41 187 43 453 5 634 -101 478 -453 775 -1004 848
-91 12 -248 15 -803 15 l-689 0 0 -1176z"/>
</g>
</svg>
