<?xml version="1.0" encoding="UTF-8" standalone="no"?>
<!-- Generator: Adobe Illustrator 19.0.0, SVG Export Plug-In . SVG Version: 6.00 Build 0)  -->

<svg
   xmlns:dc="http://purl.org/dc/elements/1.1/"
   xmlns:cc="http://creativecommons.org/ns#"
   xmlns:rdf="http://www.w3.org/1999/02/22-rdf-syntax-ns#"
   xmlns:svg="http://www.w3.org/2000/svg"
   xmlns="http://www.w3.org/2000/svg"
   xmlns:sodipodi="http://sodipodi.sourceforge.net/DTD/sodipodi-0.dtd"
   xmlns:inkscape="http://www.inkscape.org/namespaces/inkscape"
   version="1.1"
   id="Layer_1"
   x="0px"
   y="0px"
   viewBox="0 0 24 24"
   xml:space="preserve"
   sodipodi:docname="Telegram_sel.svg"
   inkscape:version="0.92.3 (2405546, 2018-03-11)"
   width="24"
   height="24"><metadata
   id="metadata207"><rdf:RDF><cc:Work
       rdf:about=""><dc:format>image/svg+xml</dc:format><dc:type
         rdf:resource="http://purl.org/dc/dcmitype/StillImage" /><dc:title></dc:title></cc:Work></rdf:RDF></metadata><defs
   id="defs205">
	
	
</defs><sodipodi:namedview
   pagecolor="#ffffff"
   bordercolor="#666666"
   borderopacity="1"
   objecttolerance="10"
   gridtolerance="10"
   guidetolerance="10"
   inkscape:pageopacity="0"
   inkscape:pageshadow="2"
   inkscape:window-width="3840"
   inkscape:window-height="2019"
   id="namedview203"
   showgrid="false"
   inkscape:pagecheckerboard="true"
   inkscape:zoom="171.3716"
   inkscape:cx="18.677051"
   inkscape:cy="22.873863"
   inkscape:window-x="-14"
   inkscape:window-y="-14"
   inkscape:window-maximized="1"
   inkscape:current-layer="Layer_1"
   scale-x="1"
   fit-margin-top="0"
   fit-margin-left="0"
   fit-margin-right="0"
   fit-margin-bottom="0" />

<g
   id="g172"
   transform="translate(-215.4166,-213.92107)">
</g>
<g
   id="g174"
   transform="translate(-215.4166,-213.92107)">
</g>
<g
   id="g176"
   transform="translate(-215.4166,-213.92107)">
</g>
<g
   id="g178"
   transform="translate(-215.4166,-213.92107)">
</g>
<g
   id="g180"
   transform="translate(-215.4166,-213.92107)">
</g>
<g
   id="g182"
   transform="translate(-215.4166,-213.92107)">
</g>
<g
   id="g184"
   transform="translate(-215.4166,-213.92107)">
</g>
<g
   id="g186"
   transform="translate(-215.4166,-213.92107)">
</g>
<g
   id="g188"
   transform="translate(-215.4166,-213.92107)">
</g>
<g
   id="g190"
   transform="translate(-215.4166,-213.92107)">
</g>
<g
   id="g192"
   transform="translate(-215.4166,-213.92107)">
</g>
<g
   id="g194"
   transform="translate(-215.4166,-213.92107)">
</g>
<g
   id="g196"
   transform="translate(-215.4166,-213.92107)">
</g>
<g
   id="g198"
   transform="translate(-215.4166,-213.92107)">
</g>
<g
   id="g200"
   transform="translate(-215.4166,-213.92107)">
</g>
<path
   style="fill:none;stroke-width:0.2640743"
   d="M -215.17893,13.473298 V -213.89466 H 12.189025 239.55699 V 13.473298 240.84126 H 12.189025 -215.17893 Z M 111.08485,150.03023 c 1.68244,-0.74323 3.65114,-2.67166 4.31978,-4.23144 0.28589,-0.66692 12.60274,-59.322152 27.37075,-130.344932 24.76391,-119.095198 26.84243,-129.287058 26.74132,-131.122998 -0.086,-1.56016 -0.27493,-2.29434 -0.87387,-3.39479 -1.54552,-2.83966 -4.39335,-4.51733 -7.66811,-4.51733 -1.47327,0 -2.34295,0.2393 -6.12983,1.68668 -16.11603,6.1597 -295.0783,113.8423482 -295.81895,114.1895382 -1.54163,0.72264 -3.2926,2.68483 -3.94888,4.42523 -0.77891,2.06562 -0.67415,5.18845 0.23425,6.98236 0.77219,1.52496 2.24059,3.06595 3.58259,3.75971 0.58097,0.30034 17.37578,6.6376398 37.32181,14.0828998 19.946027,7.44526 36.306507,13.57784 36.356617,13.62795 0.0501,0.0501 6.45985,20.57125 14.24386,45.60251 7.78402,25.031282 14.284968,45.766632 14.446568,46.078582 0.71013,1.37076 2.15241,2.78187 3.70085,3.62091 1.53157,0.82988 1.86187,0.90636 3.91724,0.90683 1.88264,0 2.47885,-0.11175 3.69704,-0.6957 0.9331,-0.44732 8.95874,-6.82083 22.44631,-17.82562 16.24405,-13.253872 21.38226,-17.308492 22.71039,-17.921012 1.59165,-0.73405 1.93734,-0.79161 4.75334,-0.79161 2.85264,0 3.14097,0.0498 4.75333,0.82005 1.01734,0.48603 16.91884,11.860082 39.03998,27.924562 26.48,19.22995 37.681215,27.21922 38.554855,27.49933 1.70396,0.54631 4.56861,0.3805 6.24876,-0.36171 z"
   id="path211"
   inkscape:connector-curvature="0" /><path
   style="fill:#ffffff;stroke-width:0.02016148"
   d="m 19.130095,22.987588 c -0.13455,-0.044 -0.005,0.0484 -4.02877,-2.87352 -0.95789,-0.6956 -1.77598,-1.28641 -1.81799,-1.31293 -0.27628,-0.17441 -0.71777,-0.17248 -0.97673,0.004 -0.0444,0.0303 -0.73841,0.59119 -1.54235,1.24649 -1.77207,1.44443 -1.71086,1.39629 -1.83515,1.44351 -0.23068,0.0877 -0.48147,0.0263 -0.66852,-0.16365 -0.11178,-0.11349 -0.11689,-0.12371 -0.21287,-0.42592 -0.0541,-0.1703 -0.54691,-1.75316 -1.09516,-3.51747 l -0.99681,-3.20783 -2.7218,-1.01446 c -1.49699,-0.55795 -2.77650996,-1.03863 -2.84337996,-1.06817 -0.24912,-0.11006 -0.37336,-0.28465 -0.38849,-0.54592 -0.006,-0.11128 6e-4,-0.18327 0.0252,-0.25723 0.0396,-0.11932 0.1837,-0.28989 0.29109,-0.34465 0.0401,-0.0204 5.21637996,-2.0213798 11.50292996,-4.4465698 l 11.4301,-4.40944 0.15267,0.007 c 0.2409,0.0116 0.43874,0.13514 0.55003,0.34357 0.0674,0.1263 0.0606,0.35947 -0.0225,0.77201 -0.12225,0.60659 -3.69341,17.7806498 -3.86535,18.5888898 -0.12515,0.58825 -0.18463,0.82889 -0.21982,0.88938 -0.0613,0.10526 -0.17322,0.20383 -0.29071,0.25592 -0.0997,0.0442 -0.33899,0.0647 -0.42559,0.0364 z m -10.26227,-4.3957 c 0.11492,-0.0806 0.11237,-0.0686 0.28356,-1.34249 0.0894,-0.66533 0.18046,-1.27581 0.20237,-1.35663 0.0876,-0.32328 0.25381,-0.59525 0.52769,-0.86347 0.0919,-0.09 2.10409,-1.96214 4.47155,-4.1603 2.36746,-2.1981598 4.35211,-4.0448598 4.41033,-4.1037798 0.0885,-0.0896 0.10585,-0.1191 0.10585,-0.18018 0,-0.15071 -0.13228,-0.24324 -0.26542,-0.18566 -0.037,0.016 -2.51233,1.53476 -5.50077,3.3750298 -4.54648,2.79969 -5.45362,3.36565 -5.55667,3.46672 -0.22427,0.21996 -0.35316,0.56504 -0.32256,0.86365 0.0108,0.10511 1.16101,4.20886 1.2243,4.36797 0.0603,0.15163 0.28326,0.2149 0.41977,0.11914 z"
   id="path217"
   inkscape:connector-curvature="0" /></svg>